<?xml version="1.0" encoding="UTF-8"?>
<svg width="512" height="512" viewBox="0 0 512 512" fill="none" xmlns="http://www.w3.org/2000/svg">
  <rect width="512" height="512" rx="128" fill="#000000"/>
  <path d="M256 96C229.49 96 208 117.49 208 144V240C208 266.51 229.49 288 256 288C282.51 288 304 266.51 304 240V144C304 117.49 282.51 96 256 96Z" fill="#000000"/>
  <path d="M368 224V240C368 301.856 317.856 352 256 352C194.144 352 144 301.856 144 240V224H128V240C128 309.787 182.371 367.432 250.667 371.741V416H192V432H320V416H261.333V371.741C329.629 367.432 384 309.787 384 240V224H368Z" fill="#000000"/>
</svg> 